<svg width="16" height="15" viewBox="0 0 16 15" fill="none" xmlns="http://www.w3.org/2000/svg">
<path d="M4.17188 0C3.89573 0 3.67188 0.223858 3.67188 0.5V2.42188C3.09209 2.62994 2.67188 3.18595 2.67188 3.83333C2.67188 4.65584 3.34938 5.33333 4.17188 5.33333C4.99438 5.33333 5.67188 4.65584 5.67188 3.83333C5.67188 3.18595 5.25166 2.62994 4.67188 2.42188V0.5C4.67188 0.223858 4.44801 0 4.17188 0ZM11.8385 0C11.5624 0 11.3385 0.223858 11.3385 0.5V2.42188C10.7588 2.62994 10.3385 3.18595 10.3385 3.83333C10.3385 4.65584 11.016 5.33333 11.8385 5.33333C12.661 5.33333 13.3385 4.65584 13.3385 3.83333C13.3385 3.18595 12.9183 2.62994 12.3385 2.42188V0.5C12.3385 0.223858 12.1147 0 11.8385 0ZM1.83854 1C0.828742 1 0 1.82875 0 2.83854V13.1615C0 14.1713 0.828742 15 1.83854 15H14.1614C15.1713 15 16 14.1713 16 13.1615V2.83854C16 1.82875 15.1713 1 14.1614 1H13.1667C12.9025 0.996267 12.6615 1.23582 12.6615 1.5C12.6615 1.76418 12.9025 2.00374 13.1667 2H14.1614C14.6336 2 15 2.36639 15 2.83854V5.66667H1V2.83854C1 2.36639 1.36639 2 1.83854 2H2.83333C3.09748 2.00373 3.33854 1.76418 3.33854 1.5C3.33854 1.23582 3.09748 0.996265 2.83333 1H1.83854ZM5.5 1C5.22385 1 5 1.22385 5 1.5C5 1.77613 5.22385 2 5.5 2H10.5C10.7761 2 11 1.77613 11 1.5C11 1.22385 10.7761 1 10.5 1H5.5ZM4.17188 3.33333C4.45394 3.33333 4.67188 3.55127 4.67188 3.83333C4.67188 4.1154 4.45394 4.33333 4.17188 4.33333C3.88981 4.33333 3.67188 4.1154 3.67188 3.83333C3.67188 3.55127 3.88981 3.33333 4.17188 3.33333ZM11.8385 3.33333C12.1206 3.33333 12.3385 3.55127 12.3385 3.83333C12.3385 4.1154 12.1206 4.33333 11.8385 4.33333C11.5565 4.33333 11.3385 4.1154 11.3385 3.83333C11.3385 3.55127 11.5565 3.33333 11.8385 3.33333ZM1 6.66667H15V13.1615C15 13.6336 14.6336 14 14.1614 14H1.83854C1.36639 14 1 13.6336 1 13.1615V6.66667Z" fill="#CB333B"/>
</svg>
